<?xml version="1.0" encoding="UTF-8" standalone="no"?>
<svg
   xmlns:dc="http://purl.org/dc/elements/1.1/"
   xmlns:cc="http://creativecommons.org/ns#"
   xmlns:rdf="http://www.w3.org/1999/02/22-rdf-syntax-ns#"
   xmlns:svg="http://www.w3.org/2000/svg"
   xmlns="http://www.w3.org/2000/svg"
   xmlns:xlink="http://www.w3.org/1999/xlink"
   width="264.54883mm"
   height="118.49266mm"
   viewBox="0 0 264.54883 118.49266"
   version="1.1"
   id="svg8">
  <defs
     id="defs2">
    <linearGradient
       id="linearGradient985">
      <stop
         style="stop-color:#4c6f76;stop-opacity:1"
         offset="0"
         id="stop981" />
      <stop
         style="stop-color:#8dffff;stop-opacity:0"
         offset="1"
         id="stop983" />
    </linearGradient>
    <linearGradient
       x1="240"
       y1="125.63091"
       x2="240"
       y2="234.36909"
       gradientUnits="userSpaceOnUse"
       id="color-1"
       gradientTransform="matrix(1.3703319,0,0,1.3703319,-351.93619,-2.0887796)">
      <stop
         offset="0"
         stop-color="#ffffff"
         id="stop833" />
      <stop
         offset="1"
         stop-color="#bc0e0e"
         id="stop835"
         style="stop-color:#921e78;stop-opacity:1" />
    </linearGradient>
    <linearGradient
       x1="240"
       y1="125.63091"
       x2="240"
       y2="234.36909"
       gradientUnits="userSpaceOnUse"
       id="color-1-5"
       gradientTransform="matrix(1.0579043,0,0,1.0579043,-239.2996,32.226013)">
      <stop
         offset="0"
         stop-color="#ffffff"
         id="stop927"
         style="stop-color:#afe9fe;stop-opacity:1" />
      <stop
         offset="1"
         stop-color="#bc0e0e"
         id="stop929"
         style="stop-color:#09a6e1;stop-opacity:1" />
    </linearGradient>
    <linearGradient
       xlink:href="#linearGradient985"
       id="linearGradient975"
       x1="-99.004456"
       y1="175.58502"
       x2="-99.004456"
       y2="312.96158"
       gradientUnits="userSpaceOnUse" />
    <linearGradient
       xlink:href="#linearGradient985"
       id="linearGradient997"
       x1="121.54365"
       y1="196.26649"
       x2="121.54365"
       y2="209.49567"
       gradientUnits="userSpaceOnUse" />
    <linearGradient
       xlink:href="#color-1-5"
       id="linearGradient1158"
       gradientUnits="userSpaceOnUse"
       gradientTransform="matrix(1.0579043,0,0,1.0579043,-239.2996,32.226008)"
       x1="240"
       y1="125.63091"
       x2="240"
       y2="234.36909" />
    <linearGradient
       xlink:href="#color-1-5"
       id="linearGradient1161"
       gradientUnits="userSpaceOnUse"
       gradientTransform="matrix(1.0579043,0,0,1.0579043,-239.2996,32.226013)"
       x1="240"
       y1="125.63091"
       x2="240"
       y2="234.36909" />
    <linearGradient
       xlink:href="#linearGradient985"
       id="linearGradient1163"
       gradientUnits="userSpaceOnUse"
       x1="121.54365"
       y1="196.26649"
       x2="121.54365"
       y2="209.49567" />
    <linearGradient
       xlink:href="#linearGradient985"
       id="linearGradient1165"
       gradientUnits="userSpaceOnUse"
       x1="121.54365"
       y1="196.26649"
       x2="121.54365"
       y2="209.49567" />
  </defs>
  <metadata
     id="metadata5">
    <rdf:RDF>
      <cc:Work
         rdf:about="">
        <dc:format>image/svg+xml</dc:format>
        <dc:type
           rdf:resource="http://purl.org/dc/dcmitype/StillImage" />
        <dc:title></dc:title>
      </cc:Work>
    </rdf:RDF>
  </metadata>
  <g
     id="layer1"
     transform="translate(117.677,-163.4024)">
    <path
       d="m 88.629949,215.85331 c 1.48753,-6.6555 5.6071,-10.8766 12.462951,-10.8766 6.09287,0 10.77781,4.60532 11.51884,10.8766 H 88.629949 m -36.74938,20.34526 c -8.34339,0 -10.97818,-8.1595 -10.97818,-15.1965 0,-7.78349 2.99431,-15.00166 10.97818,-14.89734 7.29498,0.0988 10.85465,6.83387 10.85465,14.89734 0,6.37283 -2.14899,15.09775 -10.85465,15.1965 m 93.262261,-35.1 c 0,6.17246 -3.90272,11.41729 -9.36987,13.44824 0.50243,2.41248 0.74377,4.92371 0.74377,7.47888 0,20.72676 -16.78558,37.53431 -37.515081,37.53431 -7.79998,0 -15.05653,-2.39324 -21.05063,-6.47439 -5.28323,4.72338 -12.21868,7.62161 -19.85948,7.62161 -1.38874,0 -2.77472,-0.12361 -4.12229,-0.30184 -1.88827,8.80449 -9.7102,15.41881 -19.08004,15.41881 -7.49808,0 -13.98891,-4.22108 -17.26864,-10.43475 -2.85433,8.58493 -10.95345,14.77662 -20.48527,14.77662 -9.42749,0 -17.4086,-6.0325 -20.38643,-14.45548 -0.23874,0.0216 -0.48038,0.0411 -0.74101,0.0411 -10.29203,0 -19.40114,-5.04448 -25.05215,-12.7676 -6.26854,4.42419 -13.93128,7.03699 -22.192327,7.03699 -21.270192,0 -38.519632,-17.22744 -38.519632,-38.49764 0,-1.18563 0.0602,-2.37129 0.16187,-3.53771 -3.88077,-3.55965 -6.35362,-8.64529 -6.35362,-14.3347 0,-10.73664 8.7249,-19.44234 19.439593,-19.44234 3.337339,0 6.45512,0.84532 9.207914,2.31365 4.885243,-2.25324 10.313974,-3.51851 16.06379,-3.51851 1.97058,0 3.899975,0.16197 5.790958,0.4419 l -0.04115,-0.68339 c 0,-9.7294 7.898774,-17.63093 17.650144,-17.63093 9.68822,0 17.53216,7.79999 17.63092,17.46898 4.06191,-2.40968 8.78526,-3.79843 13.85167,-3.79843 7.66002,0 14.57624,3.15894 19.52192,8.24184 5.9282,-8.58218 15.82225,-14.21397 27.0584,-14.21397 12.28455,0 22.98002,6.75706 28.58988,16.76641 2.36852,-1.48482 5.16519,-2.35206 8.16225,-2.35206 4.03994,0 7.69842,1.55065 10.45118,4.10308 6.11484,-4.30346 13.53062,-6.83391 21.57211,-6.83391 7.961891,0 15.320001,2.47284 21.393671,6.69391 2.61006,-2.75551 6.29046,-4.46536 10.39356,-4.46536 7.93719,0 14.35395,6.414 14.35395,14.35669 m -19.58216,16.72511 c 0,-11.2581 -9.00482,-22.41462 -24.7475,-22.41462 -13.450991,0 -22.357021,7.35809 -25.008241,18.93732 -2.35482,-12.80605 -11.07971,-18.93732 -20.85027,-18.93732 -6.63355,0 -12.16103,2.81587 -14.41432,8.62332 h -0.20045 v -2.15171 c 0,-4.20188 -2.1517,-6.47161 -6.19165,-6.47161 -2.95589,0 -4.78649,1.14446 -5.6071,3.255 -0.98805,-1.64946 -2.85706,-3.255 -6.09291,-3.255 -3.76001,0 -5.62904,2.63199 -6.57314,6.11207 l -8.34614,31.01884 h -0.18117 l -8.82644,-31.96567 c -0.82336,-3.09585 -3.35657,-5.1652 -7.01504,-5.1652 -2.57163,0 -4.78371,1.40519 -5.88979,3.5377 -1.14722,-2.09135 -3.51846,-3.5377 -5.74977,-3.5377 -2.05017,0 -3.83963,1.12523 -5.24759,2.63199 l -15.17727,16.86521 v -31.11762 c 0,-4.4818 -2.71438,-6.83387 -6.83667,-6.83387 -4.14151,0 -6.85585,2.35207 -6.85585,6.83387 v 42.75993 c -2.20937,-6.51277 -9.82819,-9.10636 -16.404123,-10.59388 l -5.708632,-1.32563 c -4.221112,-0.92764 -7.316953,-1.69066 -7.316953,-4.86881 0,-2.91471 3.09583,-4.22111 7.879578,-4.22111 8.623359,0 8.804494,6.27403 14.153575,6.27403 3.556935,0 5.727885,-2.79668 5.727885,-5.99134 0,-6.27126 -10.514331,-10.41276 -20.907902,-10.41276 -9.465937,0 -20.523682,4.14151 -20.523682,15.27609 0,9.18872 6.191692,12.48765 14.153575,14.45548 l 8.060723,1.95138 c 4.863345,1.2268 7.860366,1.78944 7.860366,5.26676 0,2.79396 -3.09584,4.96486 -7.961893,4.96486 -10.110889,0 -10.676265,-8.44218 -16.585252,-8.44218 -3.839611,0 -5.527508,2.71434 -5.527508,5.70864 0,6.75428 10.311256,12.28179 22.675396,12.28179 8.826423,0 17.973997,-3.79841 20.424867,-11.88108 v 5.04719 c 0,4.48458 2.71432,6.83389 6.85585,6.83389 4.12229,0 6.83668,-2.34931 6.83668,-6.83389 v -10.41552 l 4.78369,-4.22111 12.92953,18.29509 c 1.02372,1.49028 2.81316,3.17543 6.19168,3.17543 3.65847,0 6.47163,-3.17543 6.47163,-6.65274 0,-2.25054 -0.94412,-3.76004 -1.40522,-4.40224 l -14.25512,-19.11846 10.11089,-10.59393 c 0.42539,-0.44462 0.78504,-0.82612 1.10878,-1.24878 0.27993,0.92765 0.66142,2.03097 1.16369,3.49928 l 14.23592,40.58901 c -1.02922,4.22382 -2.99705,4.30066 -4.76727,4.30066 h -1.40522 c -3.6612,0 -6.29598,1.86905 -6.29598,5.53026 0,3.29618 2.53595,6.29321 8.62611,6.29321 8.62331,0 12.38611,-4.88528 15.66033,-14.25239 l 15.38039,-43.586 v 50.98529 c 0,4.50102 2.7116,6.8531 6.83666,6.8531 4.11954,0 6.83662,-2.35208 6.83662,-6.8531 v -18.27583 h 0.20047 c 2.53321,4.40224 7.21538,6.93271 13.48666,6.93271 11.71919,0 18.31706,-8.09914 20.38643,-18.17157 2.3109,9.60863 9.99287,18.17157 25.551681,18.17157 8.24458,0 21.47052,-3.8396 21.47052,-12.08147 0,-2.53045 -2.34933,-5.34634 -5.62905,-5.34634 -5.52751,0 -5.52752,6.75429 -15.84147,6.75429 -7.961921,0 -12.644111,-5.26675 -12.644111,-12.4849 h 30.920011 c 4.60258,0 6.01051,-1.20483 6.01051,-5.88979 m 4.23993,-21.42935 v 8.62336 h 1.78945 v -6.05172 c 2.11012,6.05172 2.12973,6.05172 2.12973,6.05172 h 1.46835 l 2.11328,-6.11209 c 0,6.1121 0.0197,6.11209 0.0197,6.11209 h 1.76747 v -8.62336 h -2.65119 l -1.91021,5.92821 c -2.03056,-5.9282 -2.05017,-5.92821 -2.05017,-5.92821 H 129.801 Z m -5.46675,1.58637 v 7.037 h 1.91022 v -7.037 h 2.57162 v -1.58637 h -7.05622 v 1.58637 z"
       fill="url(#color-1)"
       stroke-width="1.0579"
       id="path936-2"
       style="mix-blend-mode:normal;fill:url(#linearGradient1158);fill-rule:nonzero;stroke:#09a6e1;stroke-width:3.458;stroke-linecap:butt;stroke-linejoin:miter;stroke-miterlimit:10;stroke-dasharray:none;stroke-dashoffset:0;stroke-opacity:1" />
    <path
       d="m 88.629945,215.85332 c 1.48753,-6.6555 5.607105,-10.8766 12.462955,-10.8766 6.09287,0 10.77781,4.60532 11.51884,10.8766 H 88.629945 m -36.749374,20.34526 c -8.343395,0 -10.978179,-8.1595 -10.978179,-15.1965 0,-7.78349 2.994303,-15.00166 10.978179,-14.89734 7.294981,0.0988 10.854649,6.83387 10.854649,14.89734 0,6.37283 -2.148985,15.09775 -10.854649,15.1965 m 93.262259,-35.1 c 0,6.17246 -3.90272,11.41729 -9.36987,13.44824 0.50243,2.41247 0.74377,4.92371 0.74377,7.47888 0,20.72676 -16.78558,37.53431 -37.51508,37.53431 -7.799982,0 -15.056528,-2.39324 -21.050635,-6.47439 -5.283227,4.72338 -12.218678,7.62161 -19.859477,7.62161 -1.388743,0 -2.774714,-0.12361 -4.122293,-0.30184 -1.888264,8.80449 -9.710197,15.41881 -19.080034,15.41881 -7.498077,0 -13.988912,-4.22108 -17.268638,-10.43475 -2.854331,8.58493 -10.9534561,14.77662 -20.4852691,14.77662 -9.4274929,0 -17.4086089,-6.0325 -20.3864299,-14.45548 -0.238747,0.0216 -0.480383,0.0411 -0.741019,0.0411 -10.292023,0 -19.40114,-5.04448 -25.052147,-12.7676 -6.268538,4.42419 -13.931278,7.03699 -22.192325,7.03699 -21.270192,0 -38.519633,-17.22744 -38.519633,-38.49764 0,-1.18563 0.0602,-2.37129 0.16187,-3.53771 -3.88077,-3.55965 -6.35362,-8.64529 -6.35362,-14.3347 0,-10.73664 8.7249,-19.44234 19.439594,-19.44234 3.337339,0 6.45512,0.84532 9.207914,2.31365 4.885243,-2.25324 10.313974,-3.51851 16.06379,-3.51851 1.97058,0 3.899975,0.16197 5.790958,0.4419 l -0.04115,-0.68339 c 0,-9.7294 7.898769,-17.63093 17.650139,-17.63093 9.688224,0 17.532161,7.79999 17.630927,17.46898 4.061908,-2.40968 8.785261,-3.79843 13.85167,-3.79843 7.6600208,0 14.5762394,3.15894 19.5219209,8.24184 5.9281995,-8.58218 15.8222491,-14.21397 27.0583991,-14.21397 12.284543,0 22.980019,6.75706 28.589874,16.76641 2.368521,-1.48482 5.165197,-2.35206 8.16225,-2.35206 4.039946,0 7.698423,1.55065 10.451185,4.10308 6.114835,-4.30346 13.530617,-6.83391 21.572107,-6.83391 7.961892,0 15.320002,2.47284 21.393672,6.69391 2.61006,-2.75551 6.29046,-4.46536 10.39356,-4.46536 7.93719,0 14.35395,6.414 14.35395,14.35669 M 125.5606,217.8237 c 0,-11.2581 -9.00482,-22.41463 -24.7475,-22.41463 -13.450987,0 -22.357017,7.35809 -25.008242,18.93732 -2.354821,-12.80605 -11.079707,-18.93732 -20.850268,-18.93732 -6.633546,0 -12.161033,2.81588 -14.414316,8.62332 h -0.200452 v -2.15171 c 0,-4.20187 -2.151703,-6.47161 -6.191649,-6.47161 -2.95589,0 -4.786488,1.14446 -5.607104,3.255 -0.988051,-1.64945 -2.857061,-3.255 -6.092905,-3.255 -3.760014,0 -5.629045,2.63199 -6.57314,6.11208 L 7.5288752,232.53999 H 7.347709 l -8.8264341,-31.96567 c -0.8233669,-3.09585 -3.3565716,-5.1652 -7.015048,-5.1652 -2.5716279,0 -4.7837059,1.40519 -5.8897869,3.5377 -1.147223,-2.09135 -3.518463,-3.5377 -5.749773,-3.5377 -2.050166,0 -3.839622,1.12523 -5.247587,2.63199 l -15.177266,16.8652 V 183.7887 c 0,-4.48181 -2.714381,-6.83388 -6.836675,-6.83388 -4.141505,0 -6.855854,2.35207 -6.855854,6.83388 v 42.75993 c -2.20937,-6.51278 -9.828185,-9.10636 -16.404118,-10.59389 l -5.708632,-1.32563 c -4.221112,-0.92764 -7.316953,-1.69066 -7.316953,-4.86881 0,-2.91471 3.09583,-4.22111 7.879578,-4.22111 8.623359,0 8.804494,6.27403 14.153575,6.27403 3.556939,0 5.727885,-2.79668 5.727885,-5.99134 0,-6.27126 -10.514331,-10.41276 -20.907902,-10.41276 -9.465937,0 -20.523682,4.14151 -20.523682,15.27609 0,9.18872 6.191692,12.48765 14.153575,14.45548 l 8.060723,1.95138 c 4.863345,1.2268 7.860366,1.78944 7.860366,5.26676 0,2.79396 -3.09584,4.96487 -7.961893,4.96487 -10.110889,0 -10.676265,-8.44219 -16.585252,-8.44219 -3.839611,0 -5.527508,2.71434 -5.527508,5.70865 0,6.75428 10.311256,12.28179 22.675396,12.28179 8.826423,0 17.973995,-3.79842 20.424863,-11.88109 v 5.04719 c 0,4.48459 2.714328,6.8339 6.855854,6.8339 4.122294,0 6.836675,-2.34931 6.836675,-6.8339 v -10.41552 l 4.783695,-4.22111 12.929527,18.29509 c 1.023723,1.49029 2.813158,3.17543 6.191681,3.17543 3.658476,0 6.471634,-3.17543 6.471634,-6.65274 0,-2.25053 -0.944126,-3.76004 -1.405225,-4.40224 l -14.255122,-19.11846 10.110899,-10.59393 c 0.425383,-0.44462 0.785039,-0.82612 1.108779,-1.24878 0.279932,0.92765 0.661412,2.03097 1.163684,3.49928 l 14.23592175,40.58902 c -1.02921393,4.22382 -2.99705345,4.30066 -4.76726585,4.30066 H -5.395182 c -3.6611952,0 -6.29598,1.86905 -6.29598,5.53026 0,3.29618 2.5359554,6.29321 8.6261094,6.29321 8.6233165,0 12.3861129,-4.88528 15.6603376,-14.25239 l 15.380384,-43.58601 v 50.9853 c 0,4.50102 2.711599,6.8531 6.836664,6.8531 4.119532,0 6.836622,-2.35208 6.836622,-6.8531 v -18.27584 h 0.200462 c 2.533215,4.40224 7.215383,6.93271 13.486661,6.93271 11.719189,0 18.317063,-8.09913 20.38643,-18.17157 2.310907,9.60863 9.992869,18.17157 25.551682,18.17157 8.24458,0 21.47052,-3.8396 21.47052,-12.08147 0,-2.53045 -2.34933,-5.34634 -5.62905,-5.34634 -5.52751,0 -5.52752,6.75429 -15.84147,6.75429 -7.961918,0 -12.644107,-5.26675 -12.644107,-12.4849 h 30.920007 c 4.60258,0 6.01051,-1.20483 6.01051,-5.88979 m 4.23993,-21.42935 v 8.62336 h 1.78945 v -6.05172 c 2.11012,6.05172 2.12973,6.05172 2.12973,6.05172 h 1.46835 l 2.11328,-6.11209 c 0,6.1121 0.0197,6.11209 0.0197,6.11209 h 1.76747 v -8.62336 h -2.65119 l -1.91021,5.92821 c -2.03056,-5.9282 -2.05017,-5.92821 -2.05017,-5.92821 H 129.801 Z m -5.46675,1.58637 v 7.037 h 1.91022 v -7.037 h 2.57162 v -1.58636 h -7.05622 v 1.58636 z"
       fill="url(#color-1)"
       stroke-width="1.0579"
       id="path936"
       style="mix-blend-mode:normal;fill:url(#linearGradient1161);fill-rule:nonzero;stroke:none;stroke-linecap:butt;stroke-linejoin:miter;stroke-miterlimit:10;stroke-dasharray:none;stroke-dashoffset:0" />
    <path
       id="path1071"
       style="mix-blend-mode:normal;fill:#65797f;fill-opacity:1;fill-rule:nonzero;stroke:none;stroke-width:1;stroke-linecap:butt;stroke-linejoin:miter;stroke-miterlimit:10;stroke-dasharray:none;stroke-dashoffset:0"
       d="m -47.432546,176.63582 c -4.141497,0 -6.85591,2.35188 -6.85591,6.83369 v 42.75966 c -2.209377,-6.51277 -9.828239,-9.10614 -16.404166,-10.59365 l -5.708174,-1.32551 c -4.221136,-0.92763 -7.317396,-1.69079 -7.317396,-4.86896 0,-2.9147 3.09589,-4.22093 7.879636,-4.22093 8.623352,0 8.804565,6.27403 14.153647,6.27403 3.556952,0 5.727832,-2.7967 5.727832,-5.99136 0,-6.27126 -10.514198,-10.4128 -20.907772,-10.4128 -9.465945,0 -20.523808,4.14149 -20.523808,15.27606 0,9.18874 6.191779,12.48762 14.153647,14.45546 l 8.061007,1.9513 c 4.86336,1.22679 7.859977,1.78954 7.859977,5.26688 0,2.79394 -3.09573,4.96453 -7.961788,4.96453 -10.110893,0 -10.676043,-8.44185 -16.585036,-8.44185 -3.839607,0 -5.527807,2.71439 -5.527807,5.70871 0,6.75425 10.311474,12.2814 22.675612,12.2814 8.82642,0 17.973727,-3.79825 20.424589,-11.88093 v 5.04724 c 0,4.48458 2.714387,6.83369 6.85591,6.83369 4.122287,0 6.836807,-2.34911 6.836807,-6.83369 v -10.41537 l 4.783666,-4.22146 12.929447,18.29552 c 1.023726,1.49029 2.813341,3.175 6.191885,3.175 3.658473,0 6.471417,-3.175 6.471417,-6.65232 0,-2.25051 -0.943981,-3.76009 -1.40507,-4.40229 l -14.254956,-19.11874 10.110496,-10.59367 c 0.425397,-0.44462 0.785257,-0.82635 1.108975,-1.24902 0.279955,0.92765 0.661485,2.03122 1.16377,3.49953 l 14.23582634,40.58875 c -1.02922915,4.22381 -2.99693534,4.30101 -4.76715664,4.30101 h -1.4050962 c -3.6611983,0 -6.2962365,1.8687 -6.2962365,5.5299 0,3.29618 2.5361899,6.29317 8.6263425,6.29317 8.6232999,0 12.3858072,-4.88527 15.6600255,-14.25236 l 15.380441,-43.58598 v 50.98553 c 0,4.50101 2.711741,6.85281 6.836807,6.85281 4.119536,0 6.83678,-2.3518 6.83678,-6.85281 V 239.6201 h 0.199999 c 2.5332,4.40222 7.215743,6.93291 13.487029,6.93291 11.71919,0 18.316972,-8.09959 20.386357,-18.17204 2.310898,9.60864 9.992598,18.17204 25.551391,18.17204 8.24461,0 21.47054,-3.84009 21.47054,-12.08196 0,-2.53045 -2.34889,-5.34594 -5.62861,-5.34594 -5.52749,0 -5.52797,6.75413 -15.84193,6.75413 -7.961891,0 -12.643666,-5.26688 -12.643666,-12.48503 h 30.919576 c 4.60256,0 6.01049,-1.20459 6.01049,-5.88957 0,-11.25809 -9.00465,-22.41465 -24.74733,-22.41465 -13.45099,0 -22.357077,7.35812 -25.008308,18.93734 -2.354818,-12.80604 -11.079321,-18.93734 -20.84988,-18.93734 -6.633554,0 -12.161335,2.81581 -14.414632,8.62325 h -0.200502 v -2.15181 c 0,-4.20187 -2.151406,-6.47144 -6.191355,-6.47144 -2.955872,0 -4.786789,1.14456 -5.607394,3.2551 -0.98806,-1.64945 -2.856812,-3.2551 -6.092667,-3.2551 -3.759993,0 -5.629142,2.63168 -6.573228,6.11178 L 7.4912225,232.22055 H 7.3103798 l -8.8268703,-31.9655 c -0.8233569,-3.09585 -3.35661,-5.16506 -7.0150566,-5.16506 -2.5716439,0 -4.7835079,1.40526 -5.8895719,3.53777 -1.147233,-2.09135 -3.518218,-3.53777 -5.749528,-3.53777 -2.050177,0 -3.839766,1.12512 -5.247746,2.63188 L -40.595739,214.587 v -31.11749 c 0,-4.48181 -2.71452,-6.83369 -6.836807,-6.83369 z m 148.488106,28.02155 c 6.09285,0 10.77764,4.60559 11.51866,10.87684 H 88.592231 c 1.487514,-6.65547 5.607473,-10.87684 12.463329,-10.87684 z m -49.212499,1.12809 c 7.29496,0.0988 10.854611,6.83381 10.854611,14.89728 0,6.37283 -2.148972,15.09776 -10.854611,15.1965 -8.343397,0 -10.978144,-8.15949 -10.978144,-15.1965 0,-7.78349 2.994263,-15.0016 10.978144,-14.89728 z" />
    <g
       id="g989"
       style="stroke:url(#linearGradient997)">
      <path
         d="m 129.76211,196.35844 2.69273,-0.0122 c 0,0 0.0388,-0.004 2.06944,5.9235 l 1.93508,-5.92339 2.66777,0.0121 v 8.69534 l -1.77687,0.008 c 0,0 -0.0937,-0.0158 -0.0937,-6.12789 l -2.05954,6.136 -1.4861,5e-5 c 0,0 -0.0561,-0.0797 -2.16614,-6.13142 l 0.0744,6.03515 -1.8574,0.0801 v -8.69534 z"
         data-paper-data="{&quot;noHover&quot;:false,&quot;origItem&quot;:[&quot;Path&quot;,{&quot;applyMatrix&quot;:true,&quot;selected&quot;:true,&quot;segments&quot;:[[348.89742,155.18267],[348.89742,163.33403],[350.58892,163.33403],[[350.58892,157.61356],[0,0],[1.99462,5.72048]],[352.60208,163.33403],[353.99006,163.33403],[[355.98767,157.55649],[0,0],[0,5.77755]],[356.00621,163.33403],[357.67694,163.33403],[357.67694,155.18267],[355.17085,155.18267],[[353.36521,160.7864],[0,0],[-1.91942,-5.60372]],[351.42725,155.18267],[348.89779,155.18267]],&quot;closed&quot;:true,&quot;fillColor&quot;:[0,0,0,1]}]}"
         fill="#ffffff"
         stroke-width="0.528952"
         id="path938"
         style="mix-blend-mode:normal;fill:#ffffff;fill-opacity:1;fill-rule:nonzero;stroke:url(#linearGradient1163);stroke-width:0.529;stroke-linecap:butt;stroke-linejoin:miter;stroke-miterlimit:10;stroke-dasharray:none;stroke-dashoffset:0;stroke-opacity:1" />
      <path
         d="m 121.80122,198.01314 -0.0753,-1.65964 h 7.12321 l -0.0753,1.65964 -2.54728,0.0176 0.029,7.03872 -1.9331,1e-5 0.0289,-7.03871 z"
         data-paper-data="{&quot;noHover&quot;:false,&quot;origItem&quot;:[&quot;Path&quot;,{&quot;applyMatrix&quot;:true,&quot;selected&quot;:true,&quot;segments&quot;:[[343.72989,156.68221],[343.72989,163.33403],[345.53555,163.33403],[345.53555,156.68221],[347.96642,156.68221],[347.96642,155.18267],[341.29643,155.18267],[341.29643,156.68221]],&quot;closed&quot;:true,&quot;fillColor&quot;:[0,0,0,1]}]}"
         fill="#ffffff"
         stroke-width="0.528952"
         id="path940"
         style="mix-blend-mode:normal;fill:#ffffff;fill-opacity:1;fill-rule:nonzero;stroke:url(#linearGradient1165);stroke-width:0.529;stroke-linecap:butt;stroke-linejoin:miter;stroke-miterlimit:10;stroke-dasharray:none;stroke-dashoffset:0;stroke-opacity:1" />
    </g>
    <path
       id="path1071-0"
       style="opacity:1;mix-blend-mode:normal;fill:#ffffff;fill-opacity:1;fill-rule:nonzero;stroke:none;stroke-width:5.5;stroke-linecap:butt;stroke-linejoin:miter;stroke-miterlimit:10;stroke-dasharray:none;stroke-dashoffset:0;stroke-opacity:0"
       d="m -47.394917,177.48435 c -4.141497,0 -6.85591,2.35188 -6.85591,6.83369 v 42.75966 c -2.209377,-6.51277 -9.828239,-9.10614 -16.404166,-10.59365 l -5.708174,-1.32551 c -4.221136,-0.92763 -7.317396,-1.69079 -7.317396,-4.86896 0,-2.9147 3.09589,-4.22093 7.879636,-4.22093 8.623352,0 8.804565,6.27403 14.153647,6.27403 3.556952,0 5.727832,-2.7967 5.727832,-5.99136 0,-6.27126 -10.514198,-10.4128 -20.907772,-10.4128 -9.465945,0 -20.523808,4.14149 -20.523808,15.27606 0,9.18874 6.191779,12.48762 14.153647,14.45546 l 8.061007,1.9513 c 4.86336,1.22679 7.859977,1.78954 7.859977,5.26688 0,2.79394 -3.09573,4.96453 -7.961788,4.96453 -10.110893,0 -10.676043,-8.44185 -16.585036,-8.44185 -3.839607,0 -5.527807,2.71439 -5.527807,5.70871 0,6.75425 10.311474,12.2814 22.675612,12.2814 8.82642,0 17.973727,-3.79825 20.424589,-11.88093 v 5.04724 c 0,4.48458 2.714387,6.83369 6.85591,6.83369 4.122287,0 6.836807,-2.34911 6.836807,-6.83369 v -10.41537 l 4.783666,-4.22146 12.929443,18.29552 c 1.02373,1.49029 2.81335,3.175 6.19189,3.175 3.65847,0 6.47142,-3.175 6.47142,-6.65232 0,-2.25051 -0.94398,-3.76009 -1.40507,-4.40229 l -14.25496,-19.11874 10.1105,-10.59367 c 0.42539,-0.44462 0.78525,-0.82635 1.10897,-1.24902 0.27996,0.92765 0.66149,2.03122 1.16377,3.49953 l 14.23583,40.58875 c -1.02923,4.22381 -2.99694,4.30101 -4.76716,4.30101 h -1.4051 c -3.66119,0 -6.29623,1.8687 -6.29623,5.5299 0,3.29618 2.53619,6.29317 8.62634,6.29317 8.6233,0 12.38581,-4.88527 15.66003,-14.25236 l 15.38044,-43.58598 v 50.98553 c 0,4.50101 2.71174,6.85281 6.8368,6.85281 4.11954,0 6.83678,-2.3518 6.83678,-6.85281 v -18.27589 h 0.2 c 2.5332,4.40222 7.21575,6.93291 13.48703,6.93291 11.71919,0 18.31697,-8.09959 20.38636,-18.17204 2.3109,9.60864 9.9926,18.17204 25.551391,18.17204 8.24461,0 21.47054,-3.84009 21.47054,-12.08196 0,-2.53045 -2.34889,-5.34594 -5.62861,-5.34594 -5.52749,0 -5.52797,6.75413 -15.84193,6.75413 -7.961891,0 -12.643671,-5.26688 -12.643671,-12.48503 h 30.919581 c 4.60256,0 6.01049,-1.20459 6.01049,-5.88957 0,-11.25809 -9.00465,-22.41465 -24.74733,-22.41465 -13.450991,0 -22.357081,7.35812 -25.008311,18.93734 -2.35482,-12.80604 -11.07932,-18.93734 -20.84988,-18.93734 -6.63355,0 -12.16133,2.81581 -14.41463,8.62325 h -0.2005 v -2.15181 c 0,-4.20187 -2.15141,-6.47144 -6.19136,-6.47144 -2.95587,0 -4.78679,1.14456 -5.60739,3.2551 -0.98806,-1.64945 -2.85681,-3.2551 -6.09267,-3.2551 -3.75999,0 -5.62914,2.63168 -6.57323,6.11178 l -8.34628,31.01878 h -0.18084 l -8.82687,-31.9655 c -0.82336,-3.09585 -3.35661,-5.16506 -7.01506,-5.16506 -2.57164,0 -4.78351,1.40526 -5.88957,3.53777 -1.14723,-2.09135 -3.51822,-3.53777 -5.74953,-3.53777 -2.05017,0 -3.83976,1.12512 -5.24774,2.63188 l -15.177349,16.86513 v -31.11749 c 0,-4.48181 -2.71452,-6.83369 -6.836807,-6.83369 z M 101.09319,205.5059 c 6.09285,0 10.77764,4.60559 11.51866,10.87684 H 88.629859 c 1.48751,-6.65547 5.60747,-10.87684 12.463331,-10.87684 z m -49.212501,1.12809 c 7.29496,0.0988 10.85461,6.83381 10.85461,14.89728 0,6.37283 -2.14897,15.09776 -10.85461,15.1965 -8.3434,0 -10.97814,-8.15949 -10.97814,-15.1965 0,-7.78349 2.99426,-15.0016 10.97814,-14.89728 z" />
  </g>
</svg>
